<svg id="Capa_1" data-name="Capa 1" xmlns="http://www.w3.org/2000/svg" xmlns:xlink="http://www.w3.org/1999/xlink" viewBox="0 0 530 530"><defs><style>.cls-1{fill:none;}.cls-2{clip-path:url(#clip-path);}.cls-3{fill:#b2adad;}</style><clipPath id="clip-path"><rect class="cls-1" x="-1067.29" y="-326.21" width="759" height="1262"/></clipPath></defs><title>TEXTURA 2 DANIEL-19</title><g class="cls-2"><image width="1200" height="650" transform="translate(-1683.29 -326.21) scale(1.96)" xlink:href="C:\Users\USUARIO\Downloads\gianluca-lapadula-seguira-en-la-serie-a-udinese-puso-los-ojos-en-el-delantero-de-la-seleccion-peruana-932957.jpg"/></g><circle class="cls-3" cx="44.91" cy="46.19" r="15"/><circle class="cls-3" cx="154.66" cy="46.19" r="15"/><circle class="cls-3" cx="264.41" cy="46.19" r="15"/><circle class="cls-3" cx="374.16" cy="46.19" r="15"/><circle class="cls-3" cx="483.91" cy="46.19" r="15"/><circle class="cls-3" cx="43.51" cy="134.59" r="15"/><circle class="cls-3" cx="153.26" cy="134.59" r="15"/><circle class="cls-3" cx="263.01" cy="134.59" r="15"/><circle class="cls-3" cx="372.76" cy="134.59" r="15"/><circle class="cls-3" cx="482.51" cy="134.59" r="15"/><circle class="cls-3" cx="46.31" cy="222.99" r="15"/><circle class="cls-3" cx="156.06" cy="222.99" r="15"/><circle class="cls-3" cx="265.81" cy="222.99" r="15"/><circle class="cls-3" cx="375.56" cy="222.99" r="15"/><circle class="cls-3" cx="485.31" cy="222.99" r="15"/><circle class="cls-3" cx="47.71" cy="311.39" r="15"/><circle class="cls-3" cx="157.46" cy="311.39" r="15"/><circle class="cls-3" cx="267.21" cy="311.39" r="15"/><circle class="cls-3" cx="376.96" cy="311.39" r="15"/><circle class="cls-3" cx="486.71" cy="311.39" r="15"/><circle class="cls-3" cx="42.11" cy="399.79" r="15"/><circle class="cls-3" cx="151.86" cy="399.79" r="15"/><circle class="cls-3" cx="261.61" cy="399.79" r="15"/><circle class="cls-3" cx="371.36" cy="399.79" r="15"/><circle class="cls-3" cx="481.11" cy="399.79" r="15"/><circle class="cls-3" cx="40.71" cy="488.19" r="15"/><circle class="cls-3" cx="150.46" cy="488.19" r="15"/><circle class="cls-3" cx="260.21" cy="488.19" r="15"/><circle class="cls-3" cx="369.96" cy="488.19" r="15"/><circle class="cls-3" cx="479.71" cy="488.19" r="15"/></svg>